<svg xmlns="http://www.w3.org/2000/svg" id="Warstwa_2" data-name="Warstwa 2" viewBox="0 0 443.46 173.85"><defs><style>      .cls-1 {        fill: #007cc4;      }      .cls-2 {        fill: #1e2a4c;      }      .cls-3 {        fill: #009540;      }      .cls-4 {        fill: #d50d47;      }    </style></defs><g id="Layer_1" data-name="Layer 1"><g><path class="cls-2" d="M79.2,173.85c-.57,0-1.12-.23-1.53-.65-.94-.98-22.65-23.82-30.21-52.85-17.49,1.28-27.59-1.52-30.86-8.58-5.55-12,12.45-30.32,14.52-32.36.08-.1,2.96-3.37,8.19-8.26-11.97-9.93-19.38-17.32-19.49-17.43-.73-.73-.83-1.88-.23-2.73.18-.25,9.17-12.64,27.33-24.61-8.58-6.4-14.17-10.78-15.15-11.55-.92-.73-1.08-2.06-.36-2.98.73-.92,2.06-1.08,2.98-.36.26.21,6.5,5.1,16.4,12.43C69.36,12.61,96.32,2.45,132.01,4.47c1.17.06,2.07,1.07,2,2.24-.07,1.17-1.07,2.07-2.24,2-33.74-1.9-59.39,7.37-77.29,17.95,6.64,4.88,14.58,10.59,23.27,16.62,16.69-9.12,37.05-16.63,59.7-17.63,27.14-1.18,73.94,1.71,82.6,34.51,2.68,10.17,1.09,19.45-4.6,26.84-6.37,8.27-17.41,13.43-28.83,13.47-.89.11-1.81.18-2.77.2-1.07,3.19-2.49,6.25-4.25,9.09-6.64,10.65-16.92,16.23-28.97,15.64-18.62-.87-37.81-7.75-55.09-16.5-11.39,30.55-14.18,62.66-14.21,63.02-.07.83-.62,1.54-1.41,1.82-.23.08-.47.12-.71.12ZM49.09,115.97c.97,0,1.83.67,2.06,1.63,5.29,22.23,19.99,41.47,26.46,49.12,1.25-10.31,5.02-35.51,14.14-59.8-11.11-5.89-21.32-12.45-29.93-18.52-7.08-4.99-13.55-9.98-19.18-14.54-5.34,4.96-8.29,8.32-8.4,8.45-5.15,5.11-17.43,19.79-13.77,27.69,2.47,5.32,12.3,7.39,28.45,5.98.06,0,.12,0,.19,0ZM97.07,104.9c17.28,8.83,35.86,15.41,53.75,16.25,10.43.47,19.38-4.35,25.17-13.64,1.37-2.2,2.51-4.57,3.41-7.04-15.59-1.59-38.11-12.36-60.88-25.76-6.76,6.28-13.38,14.4-19.11,24.66-.81,1.83-1.59,3.67-2.33,5.53ZM45.84,70.95c12.51,10.08,29.15,22.17,47.46,31.98.74-1.83,1.51-3.65,2.31-5.45,5.65-10.12,12.22-18.43,19.09-25.03-12.86-7.72-25.68-16.16-37.27-24.15-13.33,7.56-24.12,16.05-31.58,22.67ZM155.69,52.46h.21c11.45.08,20.62,5.32,25.81,14.75,4.58,8.32,5.64,19.08,3.33,29.15.39-.03.77-.07,1.14-.12.09-.01.19-.02.28-.02,10.03,0,20.08-4.64,25.61-11.81,4.86-6.31,6.19-14.32,3.86-23.16-7.9-29.93-52.46-32.49-78.31-31.36-21.08.93-40.13,7.7-55.97,16.09,11.4,7.82,23.89,16,36.32,23.46,13.24-11.56,27.22-16.97,37.71-16.97ZM121.88,71.74c22.43,13.17,44.29,23.56,58.76,24.61,2.34-9.34,1.52-19.53-2.65-27.09-3.13-5.68-9.5-12.47-22.12-12.56h-.16c-8.11,0-21.02,4.33-33.84,15.04ZM24.17,52.03c2.67,2.56,9.17,8.65,18.35,16.21,7.33-6.53,17.93-14.97,31.07-22.62-8.66-6.04-16.52-11.73-23.04-16.54-14.73,9.44-23.45,19.33-26.38,22.95Z"></path><circle class="cls-3" cx="159.18" cy="8.47" r="8.47"></circle><circle class="cls-2" cx="50.57" cy="26.27" r="8.47"></circle><circle class="cls-2" cx="21.45" cy="52.15" r="8.47"></circle><circle class="cls-1" cx="108.73" cy="138.72" r="6.02"></circle><circle class="cls-4" cx="4.51" cy="79.44" r="4.51"></circle><path class="cls-2" d="M178.73,168.89c-3.14,3.14-6.04,4.13-11.24,4.13-5.51,0-8.49-.92-10.86-3.37-1.76-1.76-2.68-4.44-2.68-7.19,0-6.73,4.82-10.63,12.85-10.63h11.93v-4.13c0-5.89-2.83-9.03-10.4-9.03-5.2,0-7.8,1.3-10.17,4.67l-2.83-2.45c3.14-4.36,6.96-5.66,13-5.66,9.79,0,14.3,4.36,14.3,12.09v25.24h-3.9v-3.67ZM167.25,154.97c-6.27,0-9.41,2.45-9.41,7.42s2.91,7.19,9.64,7.19c3.37,0,6.5-.31,9.18-2.83,1.38-1.3,2.07-3.67,2.07-7.04v-4.74h-11.47Z"></path><path class="cls-2" d="M205.64,152.29l-8.41,9.71v10.56h-3.9v-54.46h3.9v38.4l18.28-20.8h4.97l-12.16,13.77,14.84,23.1h-4.82l-12.7-20.27Z"></path><path class="cls-2" d="M251.45,168.89c-3.14,3.14-6.04,4.13-11.24,4.13-5.51,0-8.49-.92-10.86-3.37-1.76-1.76-2.68-4.44-2.68-7.19,0-6.73,4.82-10.63,12.85-10.63h11.93v-4.13c0-5.89-2.83-9.03-10.4-9.03-5.2,0-7.8,1.3-10.17,4.67l-2.83-2.45c3.14-4.36,6.96-5.66,13-5.66,9.79,0,14.3,4.36,14.3,12.09v25.24h-3.9v-3.67ZM239.98,154.97c-6.27,0-9.41,2.45-9.41,7.42s2.91,7.19,9.64,7.19c3.37,0,6.5-.31,9.18-2.83,1.38-1.3,2.07-3.67,2.07-7.04v-4.74h-11.47Z"></path><path class="cls-2" d="M288.61,167.82c-3.29,4.28-6.73,5.2-10.94,5.2-3.9,0-7.11-1.3-9.03-3.21-3.75-3.75-4.74-9.87-4.74-15.68s1-11.93,4.74-15.68c1.91-1.91,5.13-3.21,9.03-3.21,4.21,0,7.65.92,10.94,5.2v-22.33h3.9v54.46h-3.9v-4.74ZM278.21,138.68c-9.03,0-10.4,7.8-10.4,15.45s1.38,15.45,10.4,15.45,10.4-7.8,10.4-15.45-1.38-15.45-10.4-15.45Z"></path><path class="cls-2" d="M317.29,169.5c4.36,0,7.04-1.3,10.17-4.44l2.91,2.29c-3.75,3.75-7.19,5.66-13.31,5.66-10.17,0-15.68-6.58-15.68-18.89s5.51-18.89,14.76-18.89,14.76,6.65,14.76,17.97v1.76h-25.62c0,9.41,4.13,14.53,12.01,14.53ZM325.7,144.87c-1.61-3.9-5.28-6.2-9.56-6.2s-7.95,2.29-9.56,6.2c-.84,2.37-1.07,3.37-1.3,6.96h21.72c-.23-3.52-.31-4.74-1.3-6.96Z"></path><path class="cls-2" d="M388.64,149.69c0-7.11-3.52-11.01-10.17-11.01s-10.4,3.98-10.4,10.33v23.56h-3.9v-22.87c0-7.11-3.52-11.01-10.17-11.01s-10.4,3.98-10.4,11.01v22.87h-3.9v-36.87h3.9v4.36c2.75-3.21,6.42-4.82,10.94-4.82,5.51,0,9.64,2.37,11.86,6.73,2.75-4.36,7.04-6.73,12.54-6.73,4.05,0,7.34,1.3,9.71,3.52,2.52,2.45,3.82,5.89,3.82,10.25v23.56h-3.82v-22.87Z"></path><path class="cls-2" d="M402.54,118.1h4.82v4.82h-4.82v-4.82ZM403,135.7h3.9v36.87h-3.9v-36.87Z"></path><path class="cls-2" d="M439.56,168.89c-3.14,3.14-6.04,4.13-11.24,4.13-5.51,0-8.49-.92-10.86-3.37-1.76-1.76-2.68-4.44-2.68-7.19,0-6.73,4.82-10.63,12.85-10.63h11.93v-4.13c0-5.89-2.83-9.03-10.4-9.03-5.2,0-7.8,1.3-10.17,4.67l-2.83-2.45c3.14-4.36,6.96-5.66,13-5.66,9.79,0,14.3,4.36,14.3,12.09v25.24h-3.9v-3.67ZM428.08,154.97c-6.27,0-9.41,2.45-9.41,7.42s2.91,7.19,9.64,7.19c3.37,0,6.5-.31,9.18-2.83,1.38-1.3,2.07-3.67,2.07-7.04v-4.74h-11.47Z"></path><path class="cls-4" d="M393.84,102.76h-.72c-1.41,0-2.51-1.15-2.51-2.53l-.02-16.13c0-1.4,1.12-2.52,2.53-2.52h.71c1.4,0,2.53,1.11,2.53,2.52v16.13c0,1.38-1.12,2.53-2.52,2.53M399.06,53.32c0-4.08-3.3-7.36-7.35-7.36h-2.15c-4.06,0-7.34,3.3-7.34,7.36v47.04c.01,4.05,3.31,7.33,7.35,7.33h2.17c4.04,0,7.34-3.3,7.34-7.37l-.03-47Z"></path><path class="cls-1" d="M418.27,72.27c.04,1.4-1.11,2.53-2.48,2.53h-.75c-1.39,0-2.52-1.12-2.52-2.53v-16.14c0-1.36,1.13-2.49,2.51-2.49h.75c1.38,0,2.49,1.13,2.49,2.49v16.14ZM420.98,25.35c0-4.05-3.28-7.34-7.31-7.34h-2.18c-4.07,0-7.32,3.29-7.32,7.34v47.04c0,4.07,3.29,7.36,7.36,7.36h2.13c4.06,0,7.34-3.29,7.34-7.36l-.02-47.04Z"></path><path class="cls-3" d="M440.74,99.75c0,1.39-1.13,2.51-2.51,2.51h-.74c-1.41,0-2.52-1.12-2.52-2.51v-16.14c0-1.39,1.11-2.5,2.49-2.5h.76c1.39,0,2.52,1.11,2.52,2.49v16.14ZM443.42,52.82c0-4.06-3.28-7.34-7.34-7.34h-2.15c-4.05,0-7.31,3.31-7.31,7.34v47.04c0,4.07,3.28,7.36,7.33,7.36h2.17c4.04,0,7.33-3.28,7.33-7.36l-.04-47.04Z"></path><path class="cls-2" d="M261.39,98.21c0,2.38.44,2.89,2.54,2.89h.44v5.91h-1.32c-2.12,0-3.7-.47-5.03-1.49-2.02-1.56-2.67-3.11-2.67-6.29v-35.38h6.03v34.36Z"></path><path class="cls-2" d="M273.09,93.75h12.12v-8.46c0-5.44-3.88-9.48-8.99-9.48s-9.15,4.17-9.15,9.48v11.68c0,2.34.16,3.52.68,4.74,1.41,3.43,4.83,5.68,8.4,5.68,5.07,0,9.06-4.13,9.06-9.31h-6.01c-.28,2.01-1.36,3.19-3.12,3.19-1.09,0-2.05-.58-2.63-1.49q-.37-.72-.37-2.81v-3.21ZM279.2,88.76h-6.11v-3.11c0-1.09.05-1.61.31-2.06.51-1.05,1.59-1.69,2.75-1.69,1.94,0,3.05,1.36,3.05,3.75v3.11Z"></path><polygon class="cls-2" points="295.51 107.01 289.49 107.01 289.49 63.86 295.51 63.86 295.51 89.54 303.09 76.21 309.22 76.22 302.01 88.44 310.69 107.01 303.86 107.01 298.51 93.87 295.51 98.46 295.51 107.01"></polygon><path class="cls-2" d="M324.68,106.98h6.01v-22.09c0-4.95-4.07-9.08-9.05-9.08s-9.05,3.91-9.19,9.08h6.11c.17-1.75,1.47-2.98,3.08-2.98.86,0,1.74.45,2.38,1.16.5.65.65,1.17.65,2.65v2.71h-3.49c-3.15,0-4.67.47-6.39,2.2-1.52,1.56-2.35,3.57-2.35,5.84v3.49c0,1.68.14,2.59.56,3.56,1.02,2.32,3.38,3.86,5.86,3.86s4.4-1.15,5.8-3.47v3.08ZM324.68,93.48v2.98c0,2.26,0,2.47-.29,2.97-.42,1.12-1.46,1.83-2.62,1.83-2.01,0-3.22-1.31-3.22-3.38v-1.47c0-1.97,1.21-2.93,3.79-2.93h2.33Z"></path><path class="cls-2" d="M341.52,78.94c1.41-2.1,3.27-3.14,5.73-3.14s4.14,1.03,5.53,3.14c1.72-2.17,3.52-3.14,5.99-3.14,4.2,0,7.17,3.14,7.17,7.66v23.54h-6.01v-21.86c0-2.07-1.04-3.23-2.96-3.23s-3.25,1.42-3.25,3.23v21.86h-6.02v-21.86c0-1.88-1.3-3.23-3.12-3.23s-3.07,1.42-3.07,3.23v21.86h-6.03v-30.81h6.03v2.75Z"></path></g></g></svg>