<svg xmlns="http://www.w3.org/2000/svg" id="_17_Pharmaceutical_" data-name="17 Pharmaceutical" viewBox="0 0 512 512"><defs><style>      .cls-1 {        fill: #000;        stroke-width: 0px;      }    </style></defs><path class="cls-1" d="M144,229.38v-62.75c9.31-3.3,16-12.2,16-22.63,0-13.23-10.77-24-24-24h-64c-13.23,0-24,10.77-24,24,0,10.43,6.69,19.33,16,22.63v62.75L5.27,332.15c-7.05,12.34-7,27.63.13,39.92,7.13,12.29,20.39,19.92,34.6,19.92h128c14.21,0,27.46-7.63,34.6-19.92,7.13-12.29,7.18-27.59.13-39.92l-58.73-102.78ZM188.76,364.05c-4.28,7.37-12.23,11.95-20.76,11.95H40c-8.52,0-16.48-4.58-20.76-11.95-4.28-7.37-4.31-16.55-.08-23.95l59.78-104.62c.69-1.21,1.05-2.58,1.05-3.97v-71.5c0-4.42-3.58-8-8-8s-8-3.59-8-8,3.59-8,8-8h64c4.41,0,8,3.59,8,8s-3.59,8-8,8-8,3.58-8,8v71.5c0,1.39.36,2.76,1.05,3.97l59.78,104.62h0c4.23,7.4,4.2,16.58-.08,23.95Z"></path><path class="cls-1" d="M494.31,210.21l-21.47-10.73c-5.46-2.73-8.84-8.21-8.84-14.31v-18.54c9.31-3.3,16-12.19,16-22.62,0-13.23-10.77-24-24-24h-64c-13.23,0-24,10.77-24,24,0,10.43,6.69,19.32,16,22.62v18.54c0,6.1-3.39,11.58-8.84,14.31l-21.47,10.73c-10.91,5.46-17.69,16.42-17.69,28.62v121.17c0,17.64,14.35,32,32,32h112c17.65,0,32-14.36,32-32v-121.17c0-12.2-6.78-23.17-17.69-28.62ZM392,136h64c4.41,0,8,3.59,8,8s-3.59,8-8,8h-64c-4.41,0-8-3.59-8-8s3.59-8,8-8ZM496,360c0,8.82-7.18,16-16,16h-112c-8.82,0-16-7.18-16-16v-121.17c0-6.1,3.39-11.58,8.84-14.31l21.47-10.73c10.91-5.46,17.69-16.42,17.69-28.62v-17.17h48v17.17c0,12.2,6.78,23.17,17.69,28.62l21.47,10.73c5.46,2.73,8.84,8.21,8.84,14.31v121.17Z"></path><path class="cls-1" d="M104,104c4.42,0,8-3.58,8-8v-24c0-4.41,3.59-8,8-8h64c4.42,0,8-3.58,8-8s-3.58-8-8-8h-64c-13.23,0-24,10.77-24,24v24c0,4.42,3.58,8,8,8Z"></path><path class="cls-1" d="M344,64h64c4.41,0,8,3.59,8,8v24c0,4.42,3.58,8,8,8s8-3.58,8-8v-24c0-13.23-10.77-24-24-24h-64c-4.42,0-8,3.58-8,8s3.58,8,8,8Z"></path><path class="cls-1" d="M448,280h-16v-16c0-4.42-3.58-8-8-8s-8,3.58-8,8v16h-16c-4.42,0-8,3.58-8,8s3.58,8,8,8h16v16c0,4.42,3.58,8,8,8s8-3.58,8-8v-16h16c4.42,0,8-3.58,8-8s-3.58-8-8-8Z"></path><path class="cls-1" d="M312,48h-17.01c-.76-2.93-1.93-5.7-3.43-8.24l12.04-12.04c3.12-3.12,3.12-8.19,0-11.31-3.12-3.12-8.19-3.12-11.31,0l-12.04,12.04c-2.54-1.51-5.31-2.67-8.24-3.43V8c0-4.42-3.58-8-8-8s-8,3.58-8,8v17.01c-2.93.76-5.7,1.93-8.24,3.43l-12.04-12.04c-3.12-3.12-8.19-3.12-11.31,0-3.12,3.12-3.12,8.19,0,11.31l12.04,12.04c-1.51,2.54-2.67,5.31-3.43,8.24h-17.01c-4.42,0-8,3.58-8,8s3.58,8,8,8h17.01c.76,2.93,1.93,5.7,3.43,8.24l-12.04,12.04c-3.12,3.12-3.12,8.19,0,11.31,1.56,1.56,3.61,2.34,5.66,2.34s4.09-.78,5.66-2.34l12.04-12.04c2.54,1.51,5.31,2.67,8.24,3.43v17.01c0,4.42,3.58,8,8,8s8-3.58,8-8v-17.01c2.93-.76,5.7-1.93,8.24-3.43l12.04,12.04c1.56,1.56,3.61,2.34,5.66,2.34s4.09-.78,5.66-2.34c3.12-3.12,3.12-8.19,0-11.31l-12.04-12.04c1.51-2.54,2.67-5.31,3.43-8.24h17.01c4.42,0,8-3.58,8-8s-3.58-8-8-8ZM264,72c-8.82,0-16-7.18-16-16s7.18-16,16-16,16,7.18,16,16-7.18,16-16,16Z"></path><path class="cls-1" d="M424,408c-4.42,0-8,3.58-8,8v24c0,4.41-3.59,8-8,8h-64c-4.42,0-8,3.58-8,8s3.58,8,8,8h64c13.23,0,24-10.77,24-24v-24c0-4.42-3.58-8-8-8Z"></path><path class="cls-1" d="M184,448h-64c-4.41,0-8-3.59-8-8v-24c0-4.42-3.58-8-8-8s-8,3.58-8,8v24c0,13.23,10.77,24,24,24h64c4.42,0,8-3.58,8-8s-3.58-8-8-8Z"></path><path class="cls-1" d="M312,448h-17.01c-.76-2.93-1.93-5.7-3.43-8.24l12.04-12.04c3.12-3.12,3.12-8.19,0-11.31-3.12-3.12-8.19-3.12-11.31,0l-12.04,12.04c-2.54-1.51-5.31-2.67-8.24-3.43v-17.01c0-4.42-3.58-8-8-8s-8,3.58-8,8v17.01c-2.93.76-5.7,1.93-8.24,3.43l-12.04-12.04c-3.12-3.12-8.19-3.12-11.31,0-3.12,3.12-3.12,8.19,0,11.31l12.04,12.04c-1.51,2.54-2.67,5.31-3.43,8.24h-17.01c-4.42,0-8,3.58-8,8s3.58,8,8,8h17.01c.76,2.93,1.93,5.7,3.43,8.24l-12.04,12.04c-3.12,3.12-3.12,8.19,0,11.31,1.56,1.56,3.61,2.34,5.66,2.34s4.09-.78,5.66-2.34l12.04-12.04c2.54,1.51,5.31,2.67,8.24,3.43v17.01c0,4.42,3.58,8,8,8s8-3.58,8-8v-17.01c2.93-.76,5.7-1.93,8.24-3.43l12.04,12.04c1.56,1.56,3.61,2.34,5.66,2.34s4.09-.78,5.66-2.34c3.12-3.12,3.12-8.19,0-11.31l-12.04-12.04c1.51-2.54,2.67-5.31,3.43-8.24h17.01c4.42,0,8-3.58,8-8s-3.58-8-8-8ZM264,472c-8.82,0-16-7.18-16-16s7.18-16,16-16,16,7.18,16,16-7.18,16-16,16Z"></path></svg>