<svg xmlns="http://www.w3.org/2000/svg" id="_07_Liquid_drug_" data-name="07 Liquid drug" viewBox="0 0 512 512"><defs><style>      .cls-1 {        fill: #000;        stroke-width: 0px;      }    </style></defs><path class="cls-1" d="M253.56,115.21c-3.58-4.03-5.56-9.22-5.56-14.62v-20.59h8c4.42,0,8-3.58,8-8V8c0-4.42-3.58-8-8-8H112c-4.42,0-8,3.58-8,8v64c0,4.42,3.58,8,8,8h8v20.59c0,5.39-1.97,10.58-5.56,14.62l-48.84,54.95c-6.19,6.96-9.6,15.93-9.6,25.25v284.59c0,17.65,14.35,32,32,32h192c17.65,0,32-14.35,32-32V195.41c0-9.32-3.41-18.28-9.6-25.25l-48.84-54.95ZM72,240h224v176H72v-176ZM120,16h128v48H120V16ZM77.56,180.79l48.84-54.95c6.19-6.96,9.6-15.93,9.6-25.25v-20.59h96v20.59c0,9.32,3.41,18.28,9.6,25.25l48.84,54.95c3.58,4.03,5.56,9.22,5.56,14.62v28.59H72v-28.59c0-5.39,1.97-10.58,5.56-14.62ZM280,496H88c-8.82,0-16-7.18-16-16v-48h224v48c0,8.82-7.18,16-16,16Z"></path><path class="cls-1" d="M456,160c0-16.96-5.75-38.19-15.01-55.39-11.32-21.03-25.88-32.61-40.99-32.61s-29.66,11.58-40.99,32.61c-9.26,17.2-15.01,38.43-15.01,55.39,0,23.51,11.35,42.07,30.67,50.77l-6.66,220.99c-.06,2.16.75,4.26,2.26,5.81,1.51,1.55,3.58,2.43,5.74,2.43h48c2.16,0,4.23-.88,5.74-2.43,1.51-1.55,2.32-3.65,2.26-5.81l-6.66-220.99c19.32-8.7,30.67-27.26,30.67-50.77ZM414.68,197.75c-3.38,1.1-5.62,4.3-5.51,7.85l6.58,218.4h-31.51l6.58-218.4c.11-3.55-2.14-6.74-5.51-7.85-16.09-5.25-25.32-19.01-25.32-37.75,0-29.74,20.69-72,40-72s40,42.26,40,72c0,18.74-9.23,32.5-25.32,37.75Z"></path><path class="cls-1" d="M208,320h-16v-16c0-4.42-3.58-8-8-8s-8,3.58-8,8v16h-16c-4.42,0-8,3.58-8,8s3.58,8,8,8h16v16c0,4.42,3.58,8,8,8s8-3.58,8-8v-16h16c4.42,0,8-3.58,8-8s-3.58-8-8-8Z"></path><path class="cls-1" d="M184,264c-35.29,0-64,28.71-64,64s28.71,64,64,64,64-28.71,64-64-28.71-64-64-64ZM184,376c-26.47,0-48-21.53-48-48s21.53-48,48-48,48,21.53,48,48-21.53,48-48,48Z"></path></svg>