<svg xmlns="http://www.w3.org/2000/svg" id="_18_Medicine_bag_" data-name="18 Medicine bag" viewBox="0 0 512 512"><defs><style>      .cls-1 {        fill: #000;        stroke-width: 0px;      }    </style></defs><path class="cls-1" d="M392,112h-24V40c0-2.12-.84-4.16-2.34-5.66L333.66,2.34c-1.53-1.53-3.58-2.32-5.66-2.32v-.02h-144v.02c-2.08,0-4.13.79-5.66,2.32l-32,32c-1.5,1.5-2.34,3.54-2.34,5.66v72h-24c-22.06,0-40,17.94-40,40v320c0,22.06,17.94,40,40,40h272c22.06,0,40-17.94,40-40V152c0-22.06-17.94-40-40-40ZM336,27.31l16,16v68.69h-16V27.31ZM192,16h128v16h-128v-16ZM192,48h128v64h-128V48ZM160,43.31l16-16v84.69h-16V43.31ZM416,472c0,13.23-10.77,24-24,24H120c-13.23,0-24-10.77-24-24v-88h320v88ZM416,368H96v-32h320v32ZM416,320H96v-168c0-13.23,10.77-24,24-24h272c13.23,0,24,10.77,24,24v168Z"></path><path class="cls-1" d="M256,160c-35.29,0-64,28.71-64,64s28.71,64,64,64,64-28.71,64-64-28.71-64-64-64ZM256,272c-26.47,0-48-21.53-48-48s21.53-48,48-48,48,21.53,48,48-21.53,48-48,48Z"></path><path class="cls-1" d="M280,216h-16v-16c0-4.42-3.58-8-8-8s-8,3.58-8,8v16h-16c-4.42,0-8,3.58-8,8s3.58,8,8,8h16v16c0,4.42,3.58,8,8,8s8-3.58,8-8v-16h16c4.42,0,8-3.58,8-8s-3.58-8-8-8Z"></path></svg>