<svg xmlns="http://www.w3.org/2000/svg" width="24" height="24" fill="currentColor" viewBox="0 0 24 24">
  <path fill-rule="evenodd" d="M21.63 5.143H2.37c-.596 0-.987.302-1.144.626a.808.808 0 0 0-.083.329v.042c.006.21.104.427.33.62l9.085 7.777c.788.674 2.096.674 2.884 0l9.086-7.777c.363-.31.394-.684.246-.991-.157-.324-.548-.626-1.144-.626ZM1.143 7.983l8.672 7.422c1.215 1.04 3.155 1.04 4.37 0l9.086-7.776c.767-.657.9-1.595.532-2.358C23.442 4.525 22.633 4 21.63 4H2.37C1.367 4 .558 4.525.197 5.271A1.95 1.95 0 0 0 0 6.098v11.516c0 1.609 1.49 2.767 3.136 2.767h17.728c1.645 0 3.136-1.158 3.136-2.767v-6.233a.571.571 0 1 0-1.143 0v6.233c0 .817-.806 1.624-1.993 1.624H3.136c-1.187 0-1.993-.807-1.993-1.623V7.982Z" clip-rule="evenodd"/>
</svg>