<svg xmlns="http://www.w3.org/2000/svg" width="24" height="24" fill="currentColor" viewBox="0 0 24 24">
  <path fill-rule="evenodd" d="M6.98.267A1.991 1.991 0 019.7.996l2.263 3.92c.55.952.224 2.17-.728 2.72L8.82 9.03c.085.276.178.551.277.826a.543.543 0 01-1.02.37 19.86 19.86 0 01-.382-1.163.723.723 0 01.332-.83l2.664-1.538a.905.905 0 00.332-1.236L8.76 1.539a.905.905 0 00-1.237-.331l-1.335.77c-1.175.68-1.996 1.795-2.072 3.064-.2 3.3.6 6.872 2.504 10.17 1.959 3.393 4.754 5.918 7.812 7.38 1.124.537 2.47.376 3.623-.29l1.235-.713a.905.905 0 00.332-1.237l-2.263-3.92a.905.905 0 00-1.237-.33l-2.625 1.515a.723.723 0 01-.88-.122A20.309 20.309 0 019.6 13.492a.543.543 0 11.94-.543 19.258 19.258 0 002.662 3.585l2.378-1.373a1.991 1.991 0 012.72.729l2.263 3.92c.55.952.224 2.17-.729 2.72l-1.235.713c-1.386.8-3.114 1.055-4.635.328-3.262-1.559-6.219-4.24-8.283-7.816-2.008-3.476-2.86-7.26-2.648-10.779.103-1.715 1.2-3.122 2.613-3.938L6.98.268zm11.227.596c.224-.2.568-.18.767.045 3.01 3.38 3.336 9.08.732 12.783a.543.543 0 01-.889-.626c2.315-3.289 2.02-8.431-.654-11.435a.543.543 0 01.044-.767zm-3.643 2.741a.543.543 0 01.766.059c1.714 2 1.905 5.343.431 7.525a.543.543 0 11-.9-.608c1.2-1.776 1.04-4.582-.356-6.21a.543.543 0 01.06-.766z" clip-rule="evenodd"/>
</svg>
